<?xml version="1.0" encoding="utf-8"?>
<!-- Generator: Adobe Illustrator 18.1.1, SVG Export Plug-In . SVG Version: 6.00 Build 0)  -->
<!DOCTYPE svg PUBLIC "-//W3C//DTD SVG 1.1//EN" "http://www.w3.org/Graphics/SVG/1.1/DTD/svg11.dtd">
<svg version="1.1" id="Layer_1" xmlns="http://www.w3.org/2000/svg" xmlns:xlink="http://www.w3.org/1999/xlink" x="0px" y="0px"
	 viewBox="0 0 343 334" enable-background="new 0 0 343 334" xml:space="preserve">
<g>
	<g opacity="0.1">
		
			<ellipse transform="matrix(0.9965 -8.333341e-02 8.333341e-02 0.9965 -24.5016 14.601)" cx="162.7" cy="300.8" rx="135.1" ry="19.9"/>
	</g>
	<g>
		<g>
			<path fill="#FFD200" d="M186.8,280c-5.3,4.1-11,9.6-13.1,16.1c-2,6,1.8,12.4,7.9,13.8c3.5,0.8,7.6,0,11-1
				c11.4-3.1,21.8-10.1,31.2-17.2c2-1.7,3.9-3.4,5.9-5.1c1.3-1.1,2.6-2.3,3.9-3.4c1.5-1.3,3.5-2.4,3.9-4.5c0.5-2.6-1.1-5.5-2.3-7.7"
				/>
			<path fill="#1A1A1A" d="M184.7,312.2c-1.2,0-2.3-0.1-3.5-0.4c-3.5-0.8-6.5-3-8.3-6.2c-1.8-3.1-2.1-6.8-1-10.1
				c1.9-5.7,6.5-11.5,13.8-17c0.9-0.7,2.1-0.5,2.8,0.4c0.7,0.9,0.5,2.1-0.4,2.8c-6.6,5.1-10.8,10.1-12.4,15.1
				c-0.7,2.3-0.5,4.8,0.7,6.9c1.2,2.2,3.3,3.7,5.7,4.3c3.3,0.7,7.3-0.2,10.1-1c11.3-3.1,21.7-10.2,30.4-16.8l9.8-8.5
				c0.3-0.3,0.7-0.5,1-0.8c1.1-0.8,2.1-1.6,2.3-2.6c0.4-1.9-1-4.4-2.1-6.3c-0.5-1-0.2-2.2,0.8-2.7c1-0.5,2.2-0.2,2.7,0.8
				c1.3,2.3,3.2,5.7,2.5,9c-0.5,2.4-2.3,3.8-3.7,4.9c-0.3,0.2-0.6,0.5-0.9,0.7l-9.8,8.5c0,0-0.1,0.1-0.1,0.1
				c-9,6.8-19.9,14.2-31.8,17.5C190.9,311.4,187.8,312.2,184.7,312.2z"/>
		</g>
		<g>
			<path fill="#FFD200" d="M153.1,259.8c-4.3,5.7-8.2,12.3-10.1,19.3c-1.1,4-1.9,11.3,3.3,13.2c3.5,1.3,8.3-1.6,10.9-3.8
				c4.3-3.6,7.1-8.7,9.3-13.7c0.8-1.9,1.5-3.8,2.1-5.7"/>
			<path fill="#1A1A1A" d="M148.1,294.1c-0.8,0-1.6-0.1-2.4-0.4c-5.6-2-5.8-9.1-4.2-15c1.7-6.2,5.1-12.7,10.3-19.7
				c0.5-0.7,1.4-0.8,2.1-0.3c0.7,0.5,0.8,1.4,0.3,2.1c-5,6.8-8.2,12.9-9.9,18.8c-0.3,1-2.5,9.6,2.3,11.4c2.5,0.9,6.7-1.2,9.4-3.5
				c3.5-2.9,6.4-7.2,8.8-13.2c0.7-1.7,1.4-3.6,2-5.6c0.3-0.8,1.1-1.2,1.9-1c0.8,0.3,1.2,1.1,1,1.9c-0.7,2.1-1.4,4-2.1,5.8
				c-2.7,6.4-5.9,11.1-9.7,14.3C157.1,290.5,152.6,294.1,148.1,294.1z"/>
		</g>
		<g>
			<path fill="#F08300" d="M289.2,139.1C289.2,139.1,289.2,139.1,289.2,139.1c-7.6,1.7-13.2,8.5-13.2,16.5c0,5,2.2,9.8,6,13
				c2.3,2,5,3.1,8,3.5c3,0.4,6.1,0.4,8.9,1.7c3,1.4,5,4.1,6.7,6.9c1.9,3,3.7,6.2,5,9.5c2.4,5.9,3.6,12.2,3.6,18.5
				c0,5.7-1.3,11.7-3.1,17.2c-12.1,38.2-55.7,27.3-55.7,27.3s-4.2,10.6-4.2,10.6c30.3,9.1,61.2,3.3,78.1-25.2
				c11.6-19.5,14.1-40.3,9.4-62.3c-2.6-12.1-7.9-24.5-18.4-31.9C312.7,139,298.5,135.1,289.2,139.1z"/>
			<path fill="#1A1A1A" d="M277,269.7C277,269.7,277,269.7,277,269.7c-8.5,0-17.3-1.4-26.2-4.1c-0.5-0.2-1-0.5-1.2-1
				c-0.2-0.5-0.3-1.1-0.1-1.6l4.2-10.6c0.4-0.9,1.4-1.4,2.3-1.2c0.1,0,5.6,1.4,13.2,1.4c14.4,0,33-4.7,40.2-27.3
				c2-6.3,3-11.9,3-16.6c0-6.1-1.2-12.1-3.5-17.8c-1.4-3.5-3.3-6.7-4.9-9.2c-1.4-2.3-3.3-4.9-5.9-6.1c-1.8-0.8-3.8-1-6-1.3
				c-0.8-0.1-1.6-0.2-2.3-0.3c-3.5-0.5-6.5-1.8-9-3.9c-4.2-3.6-6.7-9-6.7-14.5c0-8.8,6-16.4,14.5-18.4c2.8-1.2,6.1-1.8,9.6-1.8
				c7.8,0,17,2.9,23.4,7.3c9.4,6.6,15.9,17.7,19.2,33.1c5,23.5,1.9,44.4-9.6,63.7C319.6,259,300.3,269.7,277,269.7z M254,262.4
				c7.9,2.2,15.6,3.3,23,3.3c0,0,0,0,0,0c15.5,0,36.9-4.9,50.7-28.2c10.9-18.4,13.9-38.3,9.1-60.9c-3.1-14.3-9-24.7-17.5-30.7
				c-5.6-3.9-14.1-6.6-21.1-6.6c-3.1,0-5.9,0.5-8.2,1.5c-0.1,0-0.3,0.1-0.4,0.1c-6.8,1.6-11.6,7.6-11.6,14.6c0,4.3,2,8.6,5.3,11.4
				c2,1.7,4.3,2.6,7,3c0.7,0.1,1.4,0.2,2.2,0.2c2.4,0.2,4.9,0.5,7.3,1.6c3.6,1.7,5.8,4.8,7.6,7.6c1.6,2.6,3.7,6.1,5.2,9.8
				c2.5,6.1,3.8,12.6,3.8,19.3c0,5.2-1.1,11.2-3.2,17.8c-8.3,26.2-31.1,30.1-44,30.1c-5.6,0-10.1-0.7-12.4-1.1L254,262.4z"/>
		</g>
		<g>
			<path fill="#F08300" d="M121.9,49.3c0,0-13.5,57.9-54.8,33.2c-1.8-1.1-1.7-3.7,0.1-4.7L121.9,49.3z"/>
			<path fill="#1A1A1A" d="M86.3,90.2c-6.3,0-13-2.1-20-6.3c-1.3-0.8-2.1-2.2-2-3.7c0-1.5,0.9-2.9,2.2-3.6L121.2,48
				c0.5-0.3,1.1-0.2,1.6,0.1c0.5,0.4,0.7,1,0.5,1.5c-0.1,0.4-2.4,10.2-8,20.1C107.7,83.1,97.7,90.2,86.3,90.2z M119.5,52.3
				L67.9,79.2c-0.6,0.3-0.6,0.8-0.6,1c0,0.2,0,0.7,0.6,1.1c6.6,3.9,12.8,5.9,18.5,5.9C106.8,87.2,116.6,61.5,119.5,52.3z"/>
		</g>
		<g>
			<path fill="#FFD200" d="M110.1,111c-7.3,0.1-14.5-3.2-16.6-10.9C91,91.2,92,79.5,95.8,71.2c4.3-9.2,12.4-15.6,21.5-19.7
				c6.9-3.1,14.3-4.9,21.7-6c11.1-1.7,23.1-2.9,34.3,0.4c12.1,3.5,18.7,12,26.4,21.3c9.4,11.4,17.9,23.5,25.4,36.2
				c16.4,27.8,28.2,58.2,34.6,89.9c2.9,14.1,4.1,28.6,2.8,42.9c-2.2,23.5-13.6,45.6-39.1,49.2c-22.8,3.2-47.7-3.3-65.5-18.1
				c-18.5-15.4-29.7-37.9-36.6-60.6c-8.4-27.9-10.9-57.4-11-86.5L110.1,111"/>
			<path fill="#1A1A1A" d="M211.7,288.2c-20.3,0-40.4-7.1-55.1-19.4c-16.5-13.8-29.1-34.5-37.2-61.6c-7.5-24.8-11-52.5-11.1-87
				l-0.2-7.3c-8.3-0.6-14.6-5.2-16.6-12.3C89,91.3,90,79.1,94,70.3c4.1-8.8,11.9-16,22.5-20.7c6.3-2.8,13.6-4.8,22.2-6.2
				c5.1-0.8,11.9-1.7,18.7-1.7c6.1,0,11.5,0.7,16.4,2.2c12.2,3.6,19.1,12,26.5,20.8l1,1.2c9.3,11.2,17.9,23.5,25.6,36.5
				c16.6,28.2,28.4,58.6,34.8,90.5c3.1,15.4,4.1,30.1,2.8,43.5c-2.7,29.1-17.6,47.7-40.8,51C219.8,288,215.8,288.2,211.7,288.2z
				 M110.1,109c1.1,0,2,0.9,2,2l0.2,9.2c0.1,34.2,3.6,61.5,10.9,85.9c7.9,26.3,20,46.4,35.9,59.7c14,11.7,33.2,18.4,52.5,18.4
				c3.8,0,7.7-0.3,11.4-0.8c10-1.4,33.7-8.9,37.4-47.4c1.2-13.1,0.3-27.3-2.7-42.4c-6.4-31.4-17.9-61.4-34.3-89.2
				c-7.6-12.9-16.1-25-25.2-36l-1-1.2c-7.2-8.8-13.5-16.3-24.5-19.5c-4.6-1.3-9.6-2-15.3-2c-6.5,0-13.1,0.9-18.1,1.7
				c-8.3,1.3-15.2,3.2-21.2,5.9c-6.8,3-15.8,8.7-20.5,18.7C94,80,93.1,91,95.4,99.6c2.4,8.7,11.7,9.4,14.5,9.4L110.1,109
				C110.1,109,110.1,109,110.1,109z"/>
		</g>
		<g>
			<path fill="#F08300" d="M179,48.2c0,0,25.5,70.3,71.6,36.5c1.9-1.4,1.6-4.3-0.6-5.2L179,48.2z"/>
			<path fill="#1A1A1A" d="M226.1,95.9C226.1,95.9,226.1,95.9,226.1,95.9c-13.2,0-25.9-8.2-36.7-23.7c-8-11.5-12.2-22.8-12.4-23.3
				c-0.3-0.8-0.1-1.6,0.5-2.1c0.6-0.5,1.4-0.7,2.2-0.4l71,31.3c1.7,0.7,2.8,2.3,3,4.1c0.2,1.8-0.6,3.5-2,4.6
				C243.1,92.7,234.5,95.9,226.1,95.9z M182.7,52c5.1,11.3,20.2,39.9,43.4,39.9c7.5,0,15.3-3,23.3-8.8c0.4-0.3,0.4-0.8,0.4-1
				c0-0.2-0.1-0.6-0.6-0.9L182.7,52z"/>
		</g>
		<g>
			<path fill="#1A1A1A" d="M206.5,288.1c-0.1,0-0.3,0-0.5-0.1c-26.1-6.1-26.5-33.5-26.5-33.7c0-11,3.4-19.5,10.1-25.4
				c12.4-10.8,31.3-8.4,32.1-8.3c1.1,0.1,1.9,1.1,1.7,2.2c-0.1,1.1-1.2,1.9-2.2,1.7c-0.2,0-18-2.2-29,7.4
				c-5.8,5.1-8.7,12.6-8.8,22.3c0,1,0.4,24.5,23.4,29.9c1.1,0.2,1.7,1.3,1.5,2.4C208.3,287.5,207.4,288.1,206.5,288.1z"/>
		</g>
		<g>
			<path fill="#4D4D4D" d="M322.1,135.8c-0.3,0-0.6-0.1-0.9-0.3c-7.6-5.3-21.2-8.8-29.7-5.1c-0.7,0.3-1.6,0-2-0.7
				c-0.3-0.7,0-1.6,0.7-2c9.7-4.2,24.2-0.6,32.7,5.4c0.7,0.5,0.8,1.4,0.4,2.1C323,135.6,322.6,135.8,322.1,135.8z"/>
		</g>
		<g>
			<path fill="#4D4D4D" d="M334.2,134.3c-0.4,0-0.8-0.2-1.1-0.5c-4.9-5.1-11.8-8.9-18.9-10.5c-0.8-0.2-1.3-1-1.1-1.8
				c0.2-0.8,1-1.3,1.8-1.1c7.7,1.7,15.1,5.9,20.4,11.3c0.6,0.6,0.6,1.5,0,2.1C335,134.2,334.6,134.3,334.2,134.3z"/>
		</g>
		<g>
			<path fill="#DBB100" d="M144.8,76.4c-0.2,0-0.5-0.1-0.7-0.2c-4.7-2.5-12.5-3.5-17-0.9c-0.7,0.4-1.6,0.2-2-0.5
				c-0.4-0.7-0.2-1.6,0.5-2c0,0,0.1,0,0.1-0.1c5.5-3.2,14.4-2.1,19.9,0.8c0.7,0.4,1,1.3,0.6,2C145.8,76.1,145.3,76.4,144.8,76.4z"/>
		</g>
		<g>
			<path fill="#DBB100" d="M149.2,69.8c-0.2,0-0.5-0.1-0.7-0.2c-6.7-3.6-18-5-24.5-1.2c-0.7,0.4-1.6,0.2-2.1-0.5
				c-0.4-0.7-0.2-1.6,0.5-2c7.6-4.5,19.9-2.9,27.5,1.1c0.7,0.4,1,1.3,0.6,2C150.3,69.5,149.8,69.8,149.2,69.8z"/>
		</g>
		<g>
			<path fill="#F2F2F2" d="M73.8,119.1c-0.4-3.8-3.3-6.6-6.8-7.2c1.4-7.6-4.9-13.7-12-12.9c-6.1,0.7-10.4,6.1-9.8,12.1
				c0.7,6.1,6.1,10.4,12.2,9.8c0.5,4.5,4.6,7.8,9.1,7.3C71,127.7,74.3,123.6,73.8,119.1z"/>
			<path fill="#CCCCCC" d="M65.6,129.8C65.6,129.8,65.6,129.8,65.6,129.8c-4.5,0-8.4-3.1-9.4-7.3c-6.4,0-11.7-4.8-12.4-11.2
				C43,104.4,48,98.2,54.8,97.5c4.2-0.4,8.3,1.2,11,4.4c2.1,2.5,3.1,5.6,2.8,8.8c3.6,1.2,6.3,4.4,6.7,8.2c0.6,5.4-3.3,10.2-8.7,10.8
				C66.3,129.7,66,129.8,65.6,129.8z M57.4,119.4c0.3,0,0.7,0.1,0.9,0.3c0.3,0.2,0.5,0.6,0.6,1c0.4,3.4,3.3,6,6.7,6c0,0,0,0,0,0
				c0.2,0,0.5,0,0.7,0c3.7-0.4,6.4-3.8,6-7.5c-0.3-3-2.6-5.4-5.6-5.9c-0.4-0.1-0.7-0.3-1-0.6c-0.2-0.3-0.3-0.7-0.2-1.1
				c0.5-2.9-0.2-5.6-2-7.8c-2-2.4-5.1-3.7-8.4-3.4c-5.2,0.6-9,5.3-8.5,10.5c0.6,5.2,5.2,9,10.5,8.4
				C57.3,119.4,57.3,119.4,57.4,119.4z"/>
		</g>
		<g>
			<path fill="#F2F2F2" d="M24.8,106.3c6.3-0.7,11-6.1,11-12.3c0,0,0.1,0,0.1,0c6.1-0.7,10.4-6.1,9.8-12.1c-0.6-5.2-4.6-9.1-9.6-9.7
				c0.2-8-6.5-13.5-13.7-12.7c-5,0.5-8.9,3.9-10.4,8.4C5.4,69.9,0.8,76.6,1.6,83.9c0.6,5.9,4.6,10.6,9.8,12.6
				C12.7,102.6,18.4,107,24.8,106.3z"/>
			<path fill="#CCCCCC" d="M23.5,107.9C23.5,107.9,23.5,107.9,23.5,107.9c-6.3,0-11.8-4.3-13.4-10.3c-5.5-2.4-9.4-7.5-10-13.5
				C-0.7,76.4,3.8,69.2,11,66.6c1.9-4.7,6.3-8.1,11.4-8.6c4.2-0.5,8.5,1.1,11.5,4.1c2.3,2.4,3.6,5.5,3.8,8.8c5.1,1.2,9,5.5,9.6,10.8
				c0.7,6.5-3.7,12.4-10,13.6c-0.6,6.5-5.7,11.8-12.3,12.5C24.5,107.9,24,107.9,23.5,107.9z M23.9,60.9c-0.4,0-0.8,0-1.2,0.1
				c-4.2,0.5-7.8,3.3-9.1,7.3c-0.2,0.5-0.5,0.8-1,0.9c-6.2,1.9-10.2,8-9.5,14.5C3.6,88.9,7,93.2,11.9,95c0.5,0.2,0.8,0.6,0.9,1.1
				c1,5.1,5.5,8.7,10.6,8.7l0,0c0.4,0,0.8,0,1.2-0.1c5.5-0.6,9.7-5.2,9.7-10.8c0-0.8,0.6-1.4,1.3-1.5c0.1,0,0.1,0,0.2,0
				c5.2-0.6,8.9-5.3,8.4-10.5c-0.5-4.4-3.9-7.8-8.3-8.4c-0.8-0.1-1.3-0.8-1.3-1.5c0.1-3-1-5.8-3-7.9C29.6,62.1,26.8,60.9,23.9,60.9z
				"/>
		</g>
		<g>
			<path fill="#1A1A1A" d="M167.2,84.5c-0.8,0-1.5-0.7-1.5-1.5c0-1.5-1.2-2.8-2.8-2.8s-2.8,1.2-2.8,2.8c0,0.8-0.7,1.5-1.5,1.5
				c-0.8,0-1.5-0.7-1.5-1.5c0-3.2,2.6-5.8,5.8-5.8c3.2,0,5.8,2.6,5.8,5.8C168.7,83.8,168,84.5,167.2,84.5z"/>
		</g>
		<g>
			<path fill="#1A1A1A" d="M132.8,89.2c1.4,0,3-1,4.1-1.6c1.4-0.7,4.3-1.8,4.5-3.5c0.3-1.8-6-2.4-7.1-2.5c-2.7-0.3-5.8-0.2-7.9,1.7
				c-0.3,0.3,2,3.1,2.3,3.4c0.9,1,2.1,2.1,3.5,2.4C132.4,89.1,132.6,89.2,132.8,89.2z"/>
		</g>
		<g>
			<path fill="#1A1A1A" d="M111,84.2c-0.8,0-1.5-0.7-1.5-1.5c0-1.5-1.2-2.8-2.8-2.8c-1.5,0-2.8,1.2-2.8,2.8c0,0.8-0.7,1.5-1.5,1.5
				s-1.5-0.7-1.5-1.5c0-3.2,2.6-5.8,5.8-5.8c3.2,0,5.8,2.6,5.8,5.8C112.5,83.6,111.8,84.2,111,84.2z"/>
		</g>
		<g>
			<g>
				<rect x="100.2" y="42.2" fill="#21895F" width="101.5" height="8.8"/>
				<path fill="#05492D" d="M203.2,52.6H98.7V40.7h104.5V52.6z M101.7,49.6h98.5v-5.8h-98.5V49.6z"/>
			</g>
			<g>
				<path fill="#53C29C" d="M209.4,31.7c0-5.2-3.5-9.3-8-10.4c-2.8-0.6-5.6-1.1-8.3-1.6c-5.8-1.2-11.5-2.3-17.3-3.5
					c-7.6-1.5-15.2-3-22.8-4.6c-7.8-1.6-15.5-3.1-23.3-4.7c-6.3-1.3-12.6-2.5-18.8-3.8C105,2.1,99.8,0.2,94,2.8
					c-4.5,2-8.2,5.9-10.1,10.7c-1.1,2.6-1.6,5.4-1.6,8.2c0,10.9,7.9,19.9,17.8,20.4v0c0,0,99.9,0,99.9,0
					C205.2,42.1,209.4,37.4,209.4,31.7z"/>
				<path fill="#05492D" d="M100.1,43.7c-0.1,0-0.3,0-0.4-0.1C89,42.9,80.8,33.3,80.8,21.8c0-3,0.6-6.1,1.7-8.8
					c2.1-5.2,6.1-9.4,10.9-11.5c2.2-1,4.4-1.4,6.9-1.4c2.8,0,5.5,0.6,8.4,1.2c0.8,0.2,1.7,0.4,2.5,0.5l82.2,16.5
					c1.1,0.2,2.1,0.4,3.2,0.6c1.7,0.3,3.4,0.6,5.2,1c5.4,1.2,9.2,6.1,9.2,11.8c0,6.6-4.8,11.9-10.9,12l0,0c-0.4,0-0.8,0-1.2,0
					L100.1,43.7z M100.2,3c-2,0-3.9,0.4-5.6,1.2c-4.1,1.8-7.5,5.4-9.4,9.9c-1,2.4-1.5,5-1.5,7.7c0,10.1,7.2,18.4,16.4,19
					c0.1,0,0.1,0,0.2,0c6.1,0,98.1,0,99.5,0c4.4-0.1,8-4.2,8-9c0-4.3-2.8-8-6.9-8.9c-1.7-0.4-3.4-0.7-5-1c-1.1-0.2-2.2-0.4-3.2-0.6
					L110.6,4.7c-0.9-0.2-1.7-0.4-2.6-0.6C105.3,3.6,102.8,3,100.2,3z"/>
			</g>
			<g>
				<path fill="#05492D" d="M203.6,55.7H81.9c-1.4,0-2.5-1.1-2.5-2.5v-1.6c0-1.4,1.1-2.5,2.5-2.5h121.7V55.7z"/>
			</g>
		</g>
		<g opacity="0.4">
			<path fill="#FFFFFF" d="M149.3,27c-0.1,0-0.2,0-0.3,0l-36.5-7.3c-0.8-0.2-1.5-0.3-2.2-0.5c-4.1-0.9-7.7-1.7-11.5,0
				c-1.2,0.5-2.3,1.2-3.4,2.1c-0.6,0.5-1.6,0.4-2.1-0.2c-0.5-0.6-0.4-1.6,0.2-2.1c1.2-1,2.6-1.9,4.1-2.5c4.7-2.1,9.1-1.1,13.3-0.2
				c0.7,0.2,1.5,0.3,2.2,0.5l36.5,7.3c0.8,0.2,1.3,1,1.2,1.8C150.7,26.5,150,27,149.3,27z"/>
		</g>
		<g>
			<path fill="none" stroke="#808080" stroke-width="6" stroke-miterlimit="10" d="M80.6,272.3"/>
		</g>
		<g>
			<g>
				<path fill="#736357" d="M127.2,293.1L127.2,293.1c2.1-0.5,3.4-2.7,2.9-4.8l-23.6-92.4l0,0c-2.6-11-12.4-18.4-24.9-18.8
					c-10.4-0.3-22.7,5-26.4,17.5l-0.1,0.2L28.5,301.9c-0.5,2.1,0.8,4.3,2.9,4.8l0,0c2.1,0.5,4.3-0.8,4.8-2.9l11.2-44.4l63.9-12.6
					l11.1,43.4C122.9,292.4,125.1,293.6,127.2,293.1z M49.5,250.9l13.2-54.1c2.8-9,11.7-12,18.6-11.8c6.7,0.2,15.3,3.7,17.4,12.8
					l0,0.1l10.6,41.3L49.5,250.9z"/>
				<path fill="#4D4D4D" d="M32.4,308.3c-0.4,0-0.9-0.1-1.3-0.2c-2.9-0.7-4.7-3.7-4-6.6l26.6-107.4c4.1-13.7,17.1-18.6,26.9-18.6
					c0.3,0,0.7,0,1,0c12.6,0.4,22.5,7.5,25.8,18.3l0,0l0.2,0.9c0.1,0.2,0.1,0.4,0.2,0.6l0,0.2l23.6,92.4c0.4,1.4,0.2,2.9-0.6,4.1
					c-0.7,1.3-1.9,2.1-3.3,2.5c-0.4,0.1-0.9,0.2-1.4,0.2c-2.5,0-4.7-1.7-5.3-4.1l-10.7-42l-61.6,12.1l-11,43.5
					C37.1,306.6,34.9,308.3,32.4,308.3z M80.6,178.6c-14.1,0-21.7,8.9-24,16.4l0,0.2L30,302.3c-0.3,1.3,0.5,2.7,1.8,3
					c1.3,0.3,2.7-0.5,3-1.8l11.4-45.3l66.2-13l11.4,44.8c0.3,1.3,1.7,2.1,3,1.8c0.6-0.2,1.2-0.6,1.5-1.1c0.3-0.6,0.4-1.2,0.3-1.9
					l-23.2-90.7l0,0l-0.4-1.7c-2.5-10.4-11.7-17.3-23.5-17.7C81.2,178.6,80.9,178.6,80.6,178.6z M47.5,252.8l13.8-56.4
					c1.9-6.3,8-13,19.2-13c0.3,0,0.6,0,0.8,0c7.2,0.2,16.5,4,18.8,13.9l11,42.9L47.5,252.8z M80.5,186.5c-6.3,0-13.9,2.8-16.3,10.7
					L51.5,249l56-11l-10.2-39.9c-1.9-8.3-9.8-11.4-16-11.6C81,186.5,80.8,186.5,80.5,186.5z"/>
			</g>
		</g>
		<g>
			<g>
				<path fill="#C7B299" d="M145,206.3L145,206.3c-3.7-12.1-15.2-19.6-29.2-19.1c-9.8,0.4-20.6,5.2-25.8,15.1L58,188.3
					c0,0-2.3,3.1-3.2,7.3l32.5,14.1L77.6,266l-36.1-15.7l-1.9,7.9l36.7,15.8l-9.1,53.8c-0.4,2.2,1.1,4.2,3.2,4.6l0,0
					c2.2,0.4,4.2-1.1,4.6-3.2l9.1-53.7l73.9-4.8l16.2,49.3c0.7,2.1,2.9,3.2,5,2.5l0,0c2.1-0.7,3.2-2.9,2.5-5L145,206.3z M85.4,267.5
					l9.9-57.1c2.5-10.8,12.7-15,20.7-15.3c7.9-0.3,18.2,3.1,21.4,13.6l0,0.1l17.9,54.2L85.4,267.5z"/>
				<path fill="#4D4D4D" d="M71,334c-0.3,0-0.6,0-0.9-0.1c-1.4-0.2-2.7-1-3.5-2.2c-0.8-1.2-1.2-2.6-0.9-4.1l8.9-52.6l-36.7-15.9
					l2.6-10.8l36,15.6l9.3-53.3l-32.6-14.1l0.3-1.2c1-4.5,3.3-7.8,3.4-7.9l0.7-1l31.8,13.9c6.1-10.3,17.5-14.3,26.4-14.6
					c0.4,0,0.9,0,1.3,0c13.5,0,24.6,7.3,28.9,18.6l0,0l0.2,0.7c0.1,0.2,0.2,0.5,0.2,0.7l0,0.1L183,317.1c0.5,1.4,0.3,2.9-0.3,4.2
					c-0.7,1.3-1.8,2.3-3.2,2.7c-0.6,0.2-1.1,0.3-1.7,0.3l0,0c-2.4,0-4.4-1.5-5.2-3.8l-15.8-48.2l-71.5,4.6l-8.9,52.6
					C75.9,332.1,73.7,334,71,334z M41.3,257.4l36.6,15.8l-9.3,54.9c-0.1,0.7,0,1.3,0.4,1.8s0.9,0.9,1.6,1c1.4,0.2,2.6-0.7,2.9-2
					l9.3-54.9l76.2-4.9l16.6,50.4c0.4,1.3,1.8,2,3.1,1.6c0.6-0.2,1.1-0.6,1.4-1.2c0.3-0.6,0.3-1.3,0.1-1.9L144,208.2l0,0l-0.5-1.5
					c-3.5-11.5-14.3-18.5-27.7-18c-8.4,0.3-19.2,4.2-24.5,14.3l-0.6,1.2l-32-14c-0.6,1-1.4,2.6-2,4.6l32.5,14.1l-10.3,59.3
					l-36.3-15.7L41.3,257.4z M83.6,269.1l10.3-59c2.7-11.7,13.6-16.2,22.1-16.5c8.6-0.3,19.4,3.4,22.8,14.6l18.5,56.1L83.6,269.1z
					 M117,196.6c-0.3,0-0.6,0-0.8,0c-7.5,0.3-17,4.1-19.3,14.1l-9.6,55.2l66.1-4.3L136,209.1C133.2,199.9,124.3,196.6,117,196.6z"/>
			</g>
		</g>
		<g>
			<path fill="#FFD200" d="M155.5,149.1c-3.4,5.8-7.4,11.3-12,16.2c-3.8,4.1-7.8,7.8-13.2,9.5c-4.3,1.3-8.7,3.2-12.5,5.7
				c-1,0.6-1.9,1.3-2.7,2.2c-2.2,2.8-2.1,8.8,0,11.6c3.6,4.9,11.6,3.4,16.5,2.2c2.8-0.7,5.5-1.5,8.2-2.5c0,0,26.9-11.7,40.8-26.6"/>
			<path fill="#1A1A1A" d="M123.6,199.7c-3.7,0-7.6-0.9-10-4.2c-2.7-3.7-2.7-10.6,0.1-14.1c0.9-1.2,2.2-2,3.1-2.6
				c3.5-2.3,7.9-4.3,13-5.9c5.1-1.6,9-5.2,12.3-8.9c4.4-4.7,8.3-10.1,11.7-15.9c0.6-1,1.8-1.3,2.7-0.7c1,0.6,1.3,1.8,0.7,2.7
				c-3.5,6-7.7,11.6-12.2,16.6c-3.8,4.1-8.1,8.1-14.1,10c-4.7,1.5-8.8,3.3-11.9,5.4c-0.8,0.5-1.7,1.1-2.2,1.8c-1.6,2-1.6,7,0,9.2
				c2.7,3.7,9.5,2.6,14.4,1.4c2.4-0.6,5-1.4,7.9-2.4c1.3-0.6,26.9-12,40-26.1c0.7-0.8,2-0.9,2.8-0.1c0.8,0.7,0.9,2,0.1,2.8
				c-14,15.1-40.3,26.6-41.4,27.1c0,0-0.1,0-0.1,0c-3.1,1.1-5.8,2-8.4,2.6C130.3,198.9,127,199.7,123.6,199.7z"/>
		</g>
		<g>
			<path fill="#FFD200" d="M110.6,138.5c-3.7,4.1-5.2,5.7-8.9,9.8c-2.8,3-5.6,6.1-8.4,9.1c-1.2,1.3-2.4,2.5-3.5,3.7
				c-3,3.3-5.9,6.4-7.4,10.8c-0.7,1.9-1.1,4.1-0.4,6.1c1.3,3.5,6,4.5,9.3,4c4.4-0.7,8.2-3.7,11.3-6.7c0.4-0.4,0.8-0.9,1.2-1.3
				l8.4-10.1"/>
			<path fill="#1A1A1A" d="M89.5,183.6c-3.7,0-7.7-1.6-9-5.1c-0.7-2-0.6-4.4,0.4-7.1c1.7-4.8,4.9-8.2,7.7-11.3
				c0.6-0.7,1.3-1.4,1.9-2.1c0.5-0.6,1.1-1.1,1.6-1.7c3-3.2,5.9-6.4,8.4-9.1l0.7-0.7c3.2-3.5,4.8-5.2,8.2-9c0.6-0.6,1.5-0.7,2.1-0.1
				c0.6,0.6,0.7,1.5,0.1,2.1c-3.5,3.8-5,5.5-8.2,9l-0.7,0.7c-2.5,2.7-5.4,5.9-8.4,9.1c-0.5,0.6-1.1,1.1-1.6,1.7
				c-0.6,0.7-1.3,1.3-1.9,2c-2.8,3-5.6,6.1-7.1,10.3c-0.7,2.1-0.9,3.8-0.4,5.1c1,2.8,5.1,3.4,7.6,3c3.4-0.5,6.8-2.6,10.5-6.3
				c0.4-0.4,0.8-0.8,1.2-1.3l8.4-10.1c0.5-0.6,1.5-0.7,2.1-0.2c0.6,0.5,0.7,1.5,0.2,2.1l-8.4,10.1c-0.5,0.5-0.9,1-1.3,1.4
				c-4.1,4.2-8.1,6.5-12.1,7.2C90.8,183.6,90.1,183.6,89.5,183.6z"/>
		</g>
		<g>
			<path fill="#FFD200" d="M110.3,121.7c0,0,0.7,33.6,3.4,50.2"/>
			<path fill="#1A1A1A" d="M113.8,173.4c-0.7,0-1.4-0.5-1.5-1.3c-2.7-16.5-3.4-50.1-3.4-50.4c0-0.8,0.6-1.5,1.5-1.5
				c0.8,0,1.5,0.6,1.5,1.5c0,0.3,0.7,33.7,3.4,50c0.1,0.8-0.4,1.6-1.2,1.7C113.9,173.4,113.8,173.4,113.8,173.4z"/>
		</g>
		<g>
			<g>
				<path fill="#C7B299" d="M142,95.9c-3.1,0.6-5.7,1.9-7.9,3.7c-9,7.4-11.3,23.2-15.1,27.6c-0.2-0.7-0.1-3.2-1.5-4.6
					c-0.5-0.5-1.3-0.9-2.4-0.9H96.5c-2,0-3.6,1.6-3.6,3.6v4.7c0,10,5.2,16.2,15.2,16.2c24.8,0,18.3-29.6,29.8-43.8
					c1.3-1.6,2.9-3.1,4.8-4.4C143.9,97.3,143.3,95.7,142,95.9z"/>
				<path fill="#4D4D4D" d="M108.1,147.7c-10.5,0-16.7-6.6-16.7-17.7v-4.7c0-2.8,2.3-5.1,5.1-5.1H115c1.4,0,2.6,0.5,3.5,1.4
					c0.5,0.5,0.8,1,1.1,1.6c0.6-1.4,1.3-3.2,2-5c2.5-6.6,5.6-14.8,11.6-19.7c2.5-2.1,5.4-3.4,8.5-4c0.2,0,0.4,0,0.5,0
					c1.2,0,2.2,0.7,2.5,1.8c0.3,1.2-0.2,2.4-1.2,3.1c-1.7,1.1-3.2,2.4-4.5,4c-3.9,4.8-5.7,11.8-7.4,18.6
					C128.5,134.6,125.2,147.7,108.1,147.7z M96.5,123.2c-1.2,0-2.1,1-2.1,2.1v4.7c0,9.5,4.9,14.7,13.7,14.7
					c14.7,0,17.5-10.9,20.6-23.4c1.8-7.1,3.6-14.4,8-19.8c1.1-1.4,2.3-2.6,3.7-3.6c-1.9,0.6-3.7,1.6-5.4,2.9
					c-5.4,4.4-8.3,12.2-10.7,18.4c-1.5,3.8-2.7,7.2-4.3,9c-0.4,0.4-0.9,0.6-1.4,0.5c-0.5-0.1-1-0.5-1.1-1c-0.1-0.3-0.2-0.7-0.2-1.2
					c-0.1-0.9-0.3-2.2-0.9-2.9c-0.2-0.2-0.6-0.5-1.4-0.5H96.5z"/>
			</g>
			<g>
				<path fill="#4D4D4D" d="M117.2,122.5c-0.1,0.9-4.1,3.7-10.8,3.7s-11.9-2.8-11.9-3.7c0-0.9,5.5-1.6,12.3-1.6
					C113.5,121,117.3,121.7,117.2,122.5z"/>
				<path fill="#4D4D4D" d="M106.4,127.6c-6.5,0-13.4-2.7-13.4-5.2c0-0.9,0-3.1,12.9-3.1l0.8,0c6.6,0.1,10.5,0.7,11.5,1.9
					c0.3,0.4,0.5,0.9,0.5,1.4C118.4,125,113,127.6,106.4,127.6z M97.6,122.9c1.9,0.8,5,1.7,8.8,1.7c3.8,0,6.5-0.9,8-1.7
					c-1.5-0.2-3.9-0.5-7.7-0.5l-0.8,0C102.2,122.4,99.4,122.6,97.6,122.9z"/>
			</g>
		</g>
		<g>
			<polygon fill="#FFD200" points="130.4,94.7 141.1,105.5 152.2,99.4 142.1,90.9 			"/>
		</g>
		<g>
			<path fill="#1A1A1A" d="M110,112.3c-3.4,0-6.6-0.7-9.4-2c-4.3-2-7.2-5.5-8.5-10c-2.6-9.3-1.6-21.3,2.4-30c0.3-0.8,1.2-1.1,2-0.7
				c0.8,0.3,1.1,1.2,0.7,2c-3.7,8-4.6,19.3-2.2,27.9c1,3.6,3.4,6.4,6.9,8.1c4.9,2.3,11.6,2.3,17-0.1c1.2-0.5,2.5-1.4,3.7-2.2
				c0.4-0.3,0.9-0.6,1.3-0.9c1.7-1.2,3.8-2.5,5.7-4c0.2-0.2,0.4-0.3,0.7-0.5c0.3-0.2,0.7-0.5,1-0.8c0.1-0.1,0.1-0.2,0.2-0.3
				c0.9-1.3,1.9-1.7,3-1.2c0.7,0.3,1.2,0.9,1.6,1.3c0.1,0.1,0.2,0.2,0.2,0.3c0.2,0.2,0.4,0.5,0.6,0.7c0.4,0.5,0.8,0.9,1.2,1.3
				c1.3,1.2,2.6,2.2,3.9,3.1c2.9,2,5.9,3.4,8.9,4.2c4.7,1.2,9.8,0.8,14.7-1c3.6-1.3,7.2-3.4,10.6-6.2c1.7-1.4,2.9-2.5,4-3.7
				c0.5-0.6,1.5-0.7,2.1-0.1c0.6,0.5,0.7,1.5,0.1,2.1c-1.2,1.3-2.5,2.6-4.3,4.1c-3.7,3-7.5,5.2-11.4,6.7c-5.5,2-11.2,2.4-16.5,1.1
				c-3.4-0.8-6.7-2.4-9.9-4.6c-1.4-1-2.8-2.1-4.2-3.4c-0.5-0.5-1-1-1.4-1.5c-0.2-0.2-0.4-0.4-0.6-0.6c-0.1-0.1-0.2-0.2-0.3-0.4
				c0,0,0,0,0,0c-0.1,0.2-0.3,0.4-0.5,0.6c-0.4,0.4-0.8,0.7-1.2,0.9c-0.2,0.1-0.4,0.3-0.6,0.4c-2,1.6-4.1,3-5.9,4.2
				c-0.4,0.3-0.8,0.6-1.2,0.8c-1.3,0.9-2.7,1.9-4.2,2.5C116.9,111.6,113.4,112.3,110,112.3z"/>
		</g>
	</g>
</g>
</svg>
